<?xml version="1.0" encoding="utf-8"?>
<!-- Generator: Adobe Illustrator 24.0.1, SVG Export Plug-In . SVG Version: 6.00 Build 0)  -->
<svg version="1.1" id="Layer_1" xmlns="http://www.w3.org/2000/svg" xmlns:xlink="http://www.w3.org/1999/xlink" x="0px" y="0px"
	 viewBox="0 0 300 300" style="enable-background:new 0 0 300 300;" xml:space="preserve">
<style type="text/css">
	.st0{fill:#010101;}
	.st1{fill:#030303;}
</style>
<g>
	<path d="M151.1,67.1c-6.1,9.1-20.1,30-20.1,30l-4.1,0L17,97.1V17l268,0l0,80.1l-110.5,0l-3.7,0c0,0-12.2-18.1-17.2-25.8
		C152.8,69.9,152,68.5,151.1,67.1z"/>
	<path d="M151.2,234.9c1.9-3.2,3.6-6.3,5.6-9.4c3.9-6,12-17.8,12-17.8s1.4-2,2-2.8c14.2,0.1,49.2,0,49.2,0l0,80.1
		c0,0-111.9,0-165.5,0c-11.3,0-37.5,0-37.5,0v-80.1l114.1,0c0,0,0.7,1,2.1,3.1C139,216.8,145,225.7,151.2,234.9z"/>
	<path d="M118.5,190.8c-34.2,0-67.7,0-101.3,0c0-26.6,0-53,0-79.6c33.5,0,67,0,101.2,0C103.3,127.5,86,140.1,66.3,151
		C85.7,161.8,103.1,174.3,118.5,190.8z"/>
	<path class="st0" d="M183.1,191c15.2-15.9,32.6-29.1,52.3-39.9c-19.5-10.8-36.9-23.7-52.3-39.9c1.6-0.1,69.9-0.1,69.9-0.1v80.1
		C253,191.1,183.9,191,183.1,191z"/>
	<path class="st1" d="M180.4,151c-11.2,8.6-20.9,18.1-29.6,29.6c-8.5-11.3-18.1-20.9-29.2-29.3c5.4-4.8,10.6-9.1,15.4-13.9
		c4.8-4.8,9.2-10.1,14.1-15.5C159.5,132.6,168.9,142.4,180.4,151z"/>
</g>
</svg>
