<svg xmlns="http://www.w3.org/2000/svg" viewBox="0 0 114.88124 114.88136" fill="#fff">
  <path d="M.09585,55.72975C.60381,25.44386,25.94053.44616,55.71913,0,55.801,27.663,33.01259,55.00978.09585,55.72975Z" />
  <path d="M59.066,114.88136c.18621-28.35755,23.158-54.84035,55.81521-55.65638A57.1271,57.1271,0,0,1,100.6127,95.14341c-10.93836,12.46222-24.936,18.75542-41.54667,19.73784Z" />
  <path d="M0,59.22509c16.61065.98242,30.60831,7.27561,41.54667,19.73783A57.12706,57.12706,0,0,1,55.8152,114.88136C23.158,114.06533.1862,87.58252,0,59.225Z" />
  <path d="M114.78516,55.72975C85.00656,55.28359,59.66984,30.28588,59.16189,0,92.07862.72,114.867,28.06677,114.78516,55.72975Z" />
</svg>